<svg id="Artwork" xmlns="http://www.w3.org/2000/svg" xmlns:xlink="http://www.w3.org/1999/xlink" viewBox="0 0 32 32"><defs><style>.cls-1{fill-rule:evenodd;fill:url(#R3_Gradient_Swatch);}.cls-2{fill:#fff;}</style><linearGradient id="R3_Gradient_Swatch" x1="288" y1="303.88" x2="288" y2="272.69" gradientUnits="userSpaceOnUse"><stop offset="0" stop-color="#e9284c"/><stop offset="1" stop-color="#ee6176"/></linearGradient></defs><g id="Apple_Muisc_cmyk" data-name="Apple Muisc cmyk"><path id="R3" class="cls-1" d="M304,282v-1.15c0-.32,0-.64,0-1a14.75,14.75,0,0,0-.18-2.1,7,7,0,0,0-.66-2,6.81,6.81,0,0,0-2.94-2.94,7,7,0,0,0-2-.66,14.75,14.75,0,0,0-2.1-.18l-1,0H280.86l-1,0a14.75,14.75,0,0,0-2.1.18,7,7,0,0,0-2,.66,6.81,6.81,0,0,0-2.94,2.94,7,7,0,0,0-.66,2,14.75,14.75,0,0,0-.18,2.1c0,.32,0,.64,0,1v14.28c0,.32,0,.64,0,1a14.75,14.75,0,0,0,.18,2.1,7,7,0,0,0,.66,2,6.81,6.81,0,0,0,2.94,2.94,7,7,0,0,0,2,.66,14.75,14.75,0,0,0,2.1.18l1,0h14.28l1,0a14.75,14.75,0,0,0,2.1-.18,7,7,0,0,0,2-.66,6.81,6.81,0,0,0,2.94-2.94,7,7,0,0,0,.66-2,14.75,14.75,0,0,0,.18-2.1c0-.32,0-.64,0-1V282Z" transform="translate(-272 -272)"/><path class="cls-2" d="M294.62,276.89l-.84.14L284.26,279h0a1.35,1.35,0,0,0-.59.27,1,1,0,0,0-.32.62,1.91,1.91,0,0,0,0,.32v11.9a1.2,1.2,0,0,1-.21.78,1.14,1.14,0,0,1-.7.36l-.62.12a11,11,0,0,0-1.76.45,2.79,2.79,0,0,0-1,.67,2.5,2.5,0,0,0-.66,2,2.48,2.48,0,0,0,.79,1.59,2.43,2.43,0,0,0,1.15.59,4.18,4.18,0,0,0,1.72-.09,3.46,3.46,0,0,0,1.11-.41,2.72,2.72,0,0,0,.88-.81,2.92,2.92,0,0,0,.46-1.09,5.3,5.3,0,0,0,.11-1.18V284.69c0-.55.16-.7.6-.8l8.28-1.67c.51-.1.75,0,.75.59v7a1.18,1.18,0,0,1-.19.8,1.05,1.05,0,0,1-.69.35l-.63.13a11.44,11.44,0,0,0-1.76.44,2.79,2.79,0,0,0-1,.67,2.52,2.52,0,0,0-.69,2,2.55,2.55,0,0,0,.81,1.58,2.34,2.34,0,0,0,1.16.59,4.13,4.13,0,0,0,1.71-.09,3.36,3.36,0,0,0,1.11-.4,2.84,2.84,0,0,0,.88-.81,3.08,3.08,0,0,0,.47-1.1,5.81,5.81,0,0,0,.09-1.18V277.73C295.43,277.18,295.14,276.84,294.62,276.89Z" transform="translate(-272 -272)"/></g></svg>