<svg id="Layer_1" data-name="Layer 1" xmlns="http://www.w3.org/2000/svg" viewBox="0 0 2048 2048"><defs><style>.cls-1{fill:#f8362d;}.cls-1,.cls-2{fill-rule:evenodd;}.cls-2{fill:#fffffe;}.cls-3{fill:none;}</style></defs><path class="cls-1" d="M1040,1024a16,16,0,1,0-4.69,11.31A15.91,15.91,0,0,0,1040,1024Z"/><path class="cls-2" d="M1030.87,1028.63l0-13.43h0v-.46l-.41.08h0l-10.25,1.75-.29,0v10.46l-.27,0a3.3,3.3,0,0,0-.77,0,3.25,3.25,0,0,0-2.82,3.42c0,.06,0,.1,0,.15a2.9,2.9,0,0,0,3.15,2.56h.15a3.21,3.21,0,0,0,2.09-1.16,3.15,3.15,0,0,0,.73-2.24v-9l6.39-1.19v6.52l-.27,0a3.3,3.3,0,0,0-.77,0,3.21,3.21,0,0,0-2.09,1.16,3.15,3.15,0,0,0-.73,2.26c0,.06,0,.11,0,.15a2.92,2.92,0,0,0,3.15,2.56h.15a3.27,3.27,0,0,0,2.83-3.43s0,0,0-.06v0Z"/><rect class="cls-3" width="2048" height="2048"/></svg>