<svg id="Layer_1" data-name="Layer 1" xmlns="http://www.w3.org/2000/svg" xmlns:xlink="http://www.w3.org/1999/xlink" viewBox="0 0 33 33"><defs><style>.cls-1{fill:none;stroke:url(#linear-gradient);}.cls-2{fill:url(#linear-gradient-2);}</style><linearGradient id="linear-gradient" x1="551.56" y1="526.6" x2="523.87" y2="557.92" gradientTransform="matrix(1, 0, 0, -1, 0, 1082)" gradientUnits="userSpaceOnUse"><stop offset="0" stop-color="#5ac8fa"/><stop offset="0.52" stop-color="#af52de" stop-opacity="0.92"/><stop offset="0.82" stop-color="#ff2d55" stop-opacity="0.74"/><stop offset="1" stop-color="#ff3b30"/></linearGradient><linearGradient id="linear-gradient-2" x1="522.1" y1="557.38" x2="551.41" y2="527.73" gradientTransform="matrix(1, 0, 0, -1, 0, 1082)" gradientUnits="userSpaceOnUse"><stop offset="0.06" stop-color="#fb413e"/><stop offset="0.38" stop-color="#ff3c32"/><stop offset="0.52" stop-color="#ad69e3" stop-opacity="0.75"/><stop offset="0.63" stop-color="#5dc4f9"/><stop offset="0.96" stop-color="#60c2f8"/></linearGradient></defs><path class="cls-1" d="M537.5,523.5h0a16,16,0,0,1,16,16h0a16,16,0,0,1-16,16h0a16,16,0,0,1-16-16h0A16,16,0,0,1,537.5,523.5Z" transform="translate(-521 -523)"/><path class="cls-2" d="M543,531a1,1,0,0,1,1.18,1v10.8A2.88,2.88,0,0,1,541,546a2.58,2.58,0,0,1-1.67-.52,1.73,1.73,0,0,1-.65-1.37,2.18,2.18,0,0,1,.82-1.73,3.21,3.21,0,0,1,2.13-.69,3.31,3.31,0,0,1,1,.17.05.05,0,0,0,0,0s0,0,0,0v-6.94a.13.13,0,0,0-.06-.11.12.12,0,0,0-.13,0l-7.89,1.51a.21.21,0,0,0-.17.22v8.5a3.16,3.16,0,0,1-.84,2.34,3.22,3.22,0,0,1-2.32.82,2.46,2.46,0,0,1-1.66-.55,1.64,1.64,0,0,1-.65-1.35,2.16,2.16,0,0,1,.82-1.72,3.12,3.12,0,0,1,2.12-.7,3.52,3.52,0,0,1,1,.17l0,0,0,0v-9.77a1.47,1.47,0,0,1,.31-.93,1.37,1.37,0,0,1,.85-.5Z" transform="translate(-521 -523)"/></svg>