<svg id="svg2" xmlns="http://www.w3.org/2000/svg" viewBox="0 0 32 32"><defs><style>.cls-1{fill:#ff5200;}.cls-2{fill:#fff;}</style></defs><g id="layer1"><path id="rect2990-1" class="cls-1" d="M250,234h0a16,16,0,0,1,16,16h0a16,16,0,0,1-16,16h0a16,16,0,0,1-16-16h0A16,16,0,0,1,250,234Z" transform="translate(-234 -234)"/><path id="rect2989-7" class="cls-2" d="M252.32,245.55a4.48,4.48,0,0,0-1.61.31c-.19.07-.24.14-.24.29v8a.29.29,0,0,0,.27.29h7a2.52,2.52,0,0,0,0-5,2.62,2.62,0,0,0-1,.19,4.46,4.46,0,0,0-4.43-4Zm-2.37.59a.29.29,0,0,0-.28.28s-.13,4.38-.11,5.67.11,2.06.11,2.06a.28.28,0,1,0,.56,0s.11-1.37.12-2.06c0-1.89-.12-5.67-.12-5.67A.29.29,0,0,0,250,246.14Zm-.88.49a.28.28,0,0,0-.24.26s-.12,3.47-.1,5.2c0,.7.1,2.09.1,2.09a.26.26,0,0,0,.26.26.26.26,0,0,0,.26-.26h0s.1-1.39.11-2.09c0-1.73-.11-5.2-.11-5.2a.26.26,0,0,0-.26-.26Zm-2.55.6a.21.21,0,0,0-.21.21s-.15,3.52-.13,4.65.13,2.14.13,2.14a.22.22,0,0,0,.21.21.23.23,0,0,0,.21-.21s.12-1,.14-2.14-.14-4.65-.14-4.65A.22.22,0,0,0,246.52,247.23Zm.85.1a.24.24,0,0,0-.23.22s-.14,3-.11,4.54c0,.71.11,2.12.11,2.12a.24.24,0,0,0,.23.22.23.23,0,0,0,.23-.22h0s.11-1.41.13-2.12c0-1.51-.13-4.54-.13-4.54A.24.24,0,0,0,247.37,247.33Zm-1.69.07a.2.2,0,0,0-.2.19s-.15,3.39-.14,4.5.14,2.15.14,2.15a.2.2,0,0,0,.2.19.18.18,0,0,0,.18-.19h0s.15-1.43.16-2.15c0-1.5-.16-4.5-.16-4.5A.18.18,0,0,0,245.68,247.4Zm2.55.08a.25.25,0,0,0-.25.24s-.12,2.92-.1,4.37c0,.71.11,2.11.11,2.11a.24.24,0,0,0,.24.24.24.24,0,0,0,.24-.24s.11-1.41.12-2.11c0-1.45-.12-4.37-.12-4.37A.24.24,0,0,0,248.23,247.48Zm-3.39.28a.17.17,0,0,0-.17.17s-.18,2.78-.15,4.16c0,.73.15,2.17.15,2.17a.17.17,0,0,0,.17.18.18.18,0,0,0,.17-.17h0s.15-1.11.17-2.17-.17-4.16-.17-4.16a.18.18,0,0,0-.17-.17Zm-.83.79a.16.16,0,0,0-.16.16s-.17,2.45-.16,3.38.16,2.19.16,2.19a.16.16,0,0,0,.16.15.15.15,0,0,0,.15-.15s.17-1.46.18-2.19c0-1.13-.18-3.38-.18-3.38A.16.16,0,0,0,244,248.55Zm-1.65,1.18a.13.13,0,0,0-.12.12s-.18,1.5-.18,2.24.18,2.17.18,2.17a.13.13,0,0,0,.12.12.12.12,0,0,0,.12-.12,21.14,21.14,0,0,0,.21-2.17c0-.75-.21-2.24-.21-2.24A.12.12,0,0,0,242.36,249.73Zm-.81.08a.11.11,0,0,0-.1.1s-.19,1.45-.19,2.18.19,2.1.19,2.1a.11.11,0,0,0,.1.1.11.11,0,0,0,.11-.09,20,20,0,0,0,.21-2.11,21.44,21.44,0,0,0-.21-2.18A.11.11,0,0,0,241.55,249.81Zm1.63.07a.14.14,0,0,0-.14.13s-.17,1.39-.17,2.08.17,2.19.17,2.19a.15.15,0,0,0,.14.13.14.14,0,0,0,.14-.13h0a21,21,0,0,0,.19-2.19c0-.71-.19-2.08-.19-2.08a.13.13,0,0,0-.14-.13Zm-2.43.29a.09.09,0,0,0-.09.08,16.29,16.29,0,0,0-.2,1.84,15.22,15.22,0,0,0,.2,1.8.09.09,0,0,0,.18,0,13.9,13.9,0,0,0,.22-1.8,14.6,14.6,0,0,0-.22-1.84A.09.09,0,0,0,240.75,250.17Zm-.76.7a.09.09,0,0,0-.08.08,8.36,8.36,0,0,0-.15,1.14,7.92,7.92,0,0,0,.15,1.12.08.08,0,1,0,.16,0,6.69,6.69,0,0,0,.18-1.12,7.06,7.06,0,0,0-.18-1.14A.09.09,0,0,0,240,250.87Z" transform="translate(-234 -234)"/></g></svg>