<svg id="svg2" xmlns="http://www.w3.org/2000/svg" viewBox="0 0 32 32"><defs><style>.cls-1{fill:#cc181e;}.cls-2{fill:#fff;}</style></defs><g id="layer1"><path id="rect2990-1" class="cls-1" d="M250,234h0a16,16,0,0,1,16,16h0a16,16,0,0,1-16,16h0a16,16,0,0,1-16-16h0A16,16,0,0,1,250,234Z" transform="translate(-234 -234)"/><path id="rect2989-7" class="cls-2" d="M250,242.32s-4.29,0-7.16.22a2.82,2.82,0,0,0-2.05.92,4.91,4.91,0,0,0-.82,2.17s-.2,1.77-.2,3.54v1.65c0,1.77.2,3.54.2,3.54a4.91,4.91,0,0,0,.82,2.17,3.33,3.33,0,0,0,2.26.93c1.64.17,7,.22,7,.22s4.3,0,7.17-.23a2.82,2.82,0,0,0,2.05-.92,4.81,4.81,0,0,0,.81-2.17,34.43,34.43,0,0,0,.21-3.54v-1.65a34.43,34.43,0,0,0-.21-3.54,4.85,4.85,0,0,0-.81-2.17,2.82,2.82,0,0,0-2.05-.92c-2.87-.22-7.17-.22-7.17-.22Zm-2.55,3.84,6.4,3.84-6.4,3.84v-7.68Z" transform="translate(-234 -234)"/></g></svg>